<?xml version="1.0" standalone="no"?>
<!DOCTYPE svg PUBLIC "-//W3C//DTD SVG 20010904//EN"
 "http://www.w3.org/TR/2001/REC-SVG-20010904/DTD/svg10.dtd">
<svg version="1.0" xmlns="http://www.w3.org/2000/svg"
 width="1024.000000pt" height="1024.000000pt" viewBox="0 0 1024.000000 1024.000000"
 preserveAspectRatio="xMidYMid meet">

<g transform="translate(0.000000,1024.000000) scale(0.100000,-0.100000)"
fill="#000000" stroke="none">
<path d="M5048 7673 c-158 -162 -292 -375 -357 -571 -62 -187 -64 -213 -70
-827 l-6 -560 -83 -113 c-46 -62 -105 -147 -132 -189 l-50 -76 0 -373 0 -374
123 0 122 0 0 112 0 113 103 3 102 3 0 -196 0 -195 115 0 115 0 0 -137 c0
-118 3 -143 19 -169 23 -37 60 -49 106 -34 60 20 70 47 73 205 l4 140 114 -3
114 -3 0 195 0 196 100 0 99 0 3 -117 3 -118 118 -2 117 -3 2 283 c5 474 5
469 -14 505 -10 18 -49 74 -86 125 -38 51 -92 127 -120 169 l-52 76 0 554 0
553 -34 136 c-47 190 -118 343 -241 514 -49 69 -212 255 -223 255 -4 0 -42
-35 -84 -77z m193 -388 c61 -92 126 -231 151 -325 l23 -85 0 -925 0 -925 -90
0 -90 0 -5 218 -5 219 -28 24 c-20 17 -40 24 -68 24 -98 0 -109 -30 -109 -290
l0 -200 -90 0 -91 0 4 933 c3 921 3 933 25 1009 44 159 104 276 211 412 l46
58 38 -43 c21 -24 56 -71 78 -104z m49 -2550 l0 -85 -160 0 -160 0 0 85 0 85
160 0 160 0 0 -85z"/>
<path d="M5070 6863 c-35 -13 -72 -47 -90 -83 -39 -77 -19 -159 51 -209 79
-58 179 -37 237 49 20 29 23 44 20 93 -5 64 -25 98 -78 135 -32 21 -102 29
-140 15z"/>
<path d="M5059 6347 c-105 -56 -129 -176 -53 -265 45 -52 96 -70 154 -53 101
30 155 133 119 228 -22 60 -97 113 -160 113 -9 0 -36 -10 -60 -23z"/>
<path d="M6751 7214 c-123 -33 -218 -113 -274 -232 -29 -61 -32 -75 -32 -168
0 -96 2 -103 38 -176 68 -138 185 -218 331 -226 184 -9 337 79 413 237 38 81
44 203 13 295 -47 142 -168 249 -311 276 -69 13 -113 12 -178 -6z"/>
<path d="M4297 6970 c-453 -202 -834 -572 -1057 -1024 -68 -138 -140 -347
-169 -492 -55 -270 -45 -637 24 -905 29 -110 96 -292 144 -388 80 -159 165
-290 189 -291 7 0 49 14 92 31 60 23 80 35 80 49 0 10 2 24 5 32 3 7 -18 45
-46 83 -56 77 -101 161 -153 287 -175 426 -191 823 -51 1267 105 329 363 687
660 913 85 64 219 150 293 187 61 31 62 32 62 74 0 23 9 83 19 132 10 50 18
91 17 92 0 1 -49 -20 -109 -47z"/>
<path d="M5854 6989 c12 -43 27 -170 24 -197 -3 -25 5 -31 102 -82 58 -30 143
-79 188 -107 45 -29 84 -53 86 -53 2 0 -5 28 -16 63 -11 34 -23 105 -26 157
l-7 94 -85 43 c-88 44 -193 87 -244 99 -27 6 -29 5 -22 -17z"/>
<path d="M6031 6376 c-14 -63 -30 -80 -95 -102 -70 -24 -73 -63 -6 -64 39 0
70 -28 96 -86 13 -30 28 -54 34 -54 5 0 22 24 36 52 31 61 44 72 102 89 23 6
45 15 47 19 11 18 -8 38 -40 43 -56 9 -83 34 -106 98 -29 78 -51 80 -68 5z"/>
<path d="M4187 6363 c-3 -5 -10 -27 -16 -49 -17 -63 -45 -92 -107 -110 -46
-13 -54 -19 -54 -39 0 -19 7 -25 34 -30 59 -12 92 -39 116 -99 30 -72 48 -72
79 0 27 62 59 88 122 98 33 5 39 10 39 30 0 23 -16 36 -47 36 -8 0 -30 7 -48
16 -31 14 -54 49 -84 127 -10 26 -25 35 -34 20z"/>
<path d="M6716 6073 c-3 -21 -6 -59 -6 -86 0 -67 -26 -233 -57 -362 -51 -217
-159 -494 -273 -705 -191 -351 -518 -720 -847 -955 -71 -51 -90 -107 -56 -166
18 -30 67 -59 101 -59 28 0 109 57 261 184 394 327 708 761 901 1246 52 132
129 371 137 425 3 25 9 45 12 45 12 0 80 -271 92 -365 15 -117 6 -412 -16
-525 -72 -371 -244 -712 -489 -968 -243 -255 -516 -423 -890 -547 -176 -58
-182 -61 -201 -97 -18 -34 -19 -40 -5 -80 11 -32 25 -48 52 -63 33 -18 42 -18
97 -7 33 7 127 35 208 62 476 160 861 450 1132 855 190 284 300 590 342 955
16 143 7 414 -20 555 -44 237 -140 504 -237 657 l-24 38 -104 0 -103 0 -7 -37z"/>
<path d="M6150 5885 c-5 -14 -12 -36 -15 -48 -11 -41 -41 -69 -96 -87 -44 -15
-54 -23 -54 -42 0 -19 7 -24 44 -30 54 -9 95 -46 114 -102 15 -44 43 -60 53
-29 29 90 44 106 124 133 33 11 45 20 45 34 0 15 -12 23 -50 32 -57 14 -89 47
-114 115 -19 51 -37 60 -51 24z"/>
<path d="M3850 5755 c-83 -26 -160 -129 -160 -214 0 -84 73 -185 156 -217 104
-39 234 16 288 123 20 40 21 129 1 176 -46 112 -170 169 -285 132z"/>
<path d="M3746 4988 c-16 -55 -39 -108 -52 -119 -8 -7 -38 -20 -67 -29 -70
-23 -72 -49 -4 -66 62 -16 82 -35 106 -98 24 -65 48 -69 68 -9 19 55 55 90
112 106 34 9 46 18 46 32 0 14 -12 23 -46 32 -59 17 -95 53 -112 112 -12 45
-42 68 -51 39z"/>
<path d="M3980 4505 c-5 -14 -12 -36 -16 -49 -10 -43 -47 -76 -99 -90 -43 -10
-50 -16 -50 -36 0 -21 6 -26 37 -31 56 -9 87 -35 114 -96 30 -68 48 -67 77 7
21 53 25 56 85 79 51 20 62 29 62 48 0 18 -5 23 -26 23 -58 0 -109 46 -130
117 -17 58 -38 69 -54 28z"/>
<path d="M4556 4060 c-267 -168 -624 -331 -916 -418 -134 -40 -462 -125 -530
-137 -19 -4 -42 -12 -51 -18 -61 -45 -48 -156 22 -193 39 -20 67 -16 304 42
422 105 868 281 1188 471 257 153 287 178 287 245 0 32 -7 47 -34 74 -57 57
-84 51 -270 -66z"/>
<path d="M5077 3819 c-35 -20 -47 -72 -47 -194 0 -121 13 -175 48 -201 34 -26
90 -13 124 30 15 18 18 44 18 169 l0 149 -29 29 c-31 31 -79 38 -114 18z"/>
<path d="M4389 3404 c-117 -64 -402 -200 -529 -252 -144 -58 -457 -159 -610
-197 -200 -50 -217 -59 -233 -127 -14 -53 32 -123 87 -133 37 -7 332 70 574
151 338 113 851 359 894 429 46 76 -2 165 -90 165 -16 0 -58 -16 -93 -36z"/>
<path d="M5063 3076 l-28 -24 -3 -213 c-3 -224 1 -256 42 -284 28 -20 65 -19
103 5 50 30 56 72 48 297 l-7 193 -30 25 c-39 33 -88 33 -125 1z"/>
</g>
</svg>
